HIERARCHY
ROOT hip
{
  OFFSET 0 0 0
  CHANNELS 6 Xposition Yposition Zposition Zrotation Yrotation Xrotation
  JOINT abdomen
  {
    OFFSET 0 20.6881 -0.73152
    CHANNELS 3 Zrotation Xrotation Yrotation
    JOINT chest
    {
      OFFSET 0 11.7043 -0.48768
      CHANNELS 3 Zrotation Xrotation Yrotation
      JOINT neck
      {
        OFFSET 0 22.1894 -2.19456
        CHANNELS 3 Zrotation Xrotation Yrotation
        JOINT head
        {
          OFFSET -0.24384 7.07133 1.2192
          CHANNELS 3 Zrotation Xrotation Yrotation
          JOINT leftEye
          {
            OFFSET 4.14528 8.04674 8.04672
            CHANNELS 3 Zrotation Xrotation Yrotation
            End Site
            {
              OFFSET 1 0 0
            }
          }
          JOINT rightEye
          {
            OFFSET -3.6576 8.04674 8.04672
            CHANNELS 3 Zrotation Xrotation Yrotation
            End Site
            {
              OFFSET 1 0 0
            }
          }
        }
      }
      JOINT rCollar
      {
        OFFSET -2.68224 19.2634 -4.8768
        CHANNELS 3 Zrotation Xrotation Yrotation
        JOINT rShldr
        {
          OFFSET -8.77824 -1.95073 1.46304
          CHANNELS 3 Zrotation Xrotation Yrotation
          JOINT rForeArm
          {
            OFFSET -28.1742 -1.7115 0.48768
            CHANNELS 3 Zrotation Xrotation Yrotation
            JOINT rHand
            {
              OFFSET -22.5879 0.773209 7.07136
              CHANNELS 3 Zrotation Xrotation Yrotation
              JOINT rThumb1
              {
                OFFSET -1.2192 -0.487915 3.41376
                CHANNELS 3 Zrotation Xrotation Yrotation
                JOINT rThumb2
                {
                  OFFSET -3.37035 -0.52449 3.41376
                  CHANNELS 3 Zrotation Xrotation Yrotation
                  End Site
                  {
                    OFFSET -1.78271 -1.18214 1.43049
                  }
                }
              }
              JOINT rIndex1
              {
                OFFSET -7.75947 0.938293 5.60832
                CHANNELS 3 Zrotation Xrotation Yrotation
                JOINT rIndex2
                {
                  OFFSET -2.54057 -0.884171 1.56538
                  CHANNELS 3 Zrotation Xrotation Yrotation
                  End Site
                  {
                    OFFSET -1.62519 -0.234802 1.16502
                  }
                }
              }
              JOINT rMid1
              {
                OFFSET -8.24714 1.18213 3.41376
                CHANNELS 3 Zrotation Xrotation Yrotation
                JOINT rMid2
                {
                  OFFSET -3.10165 -0.590103 1.0647
                  CHANNELS 3 Zrotation Xrotation Yrotation
                  End Site
                  {
                    OFFSET -2.48547 -0.328903 0.83742
                  }
                }
              }
              JOINT rRing1
              {
                OFFSET -8.82822 0.546677 1.51678
                CHANNELS 3 Zrotation Xrotation Yrotation
                JOINT rRing2
                {
                  OFFSET -2.60934 -0.819778 -0.0198488
                  CHANNELS 3 Zrotation Xrotation Yrotation
                  End Site
                  {
                    OFFSET -2.33842 -0.294052 0.168128
                  }
                }
              }
              JOINT rPinky1
              {
                OFFSET -8.27202 -0.0477905 -0.4584
                CHANNELS 3 Zrotation Xrotation Yrotation
                JOINT rPinky2
                {
                  OFFSET -1.82734 -0.647385 -0.700984
                  CHANNELS 3 Zrotation Xrotation Yrotation
                  End Site
                  {
                    OFFSET -1.69225 -0.51767 -0.607171
                  }
                }
              }
            }
          }
        }
      }
      JOINT lCollar
      {
        OFFSET 2.68224 19.2634 -4.8768
        CHANNELS 3 Zrotation Xrotation Yrotation
        JOINT lShldr
        {
          OFFSET 8.77824 -1.95073 1.46304
          CHANNELS 3 Zrotation Xrotation Yrotation
          JOINT lForeArm
          {
            OFFSET 28.1742 -1.7115 0.48768
            CHANNELS 3 Zrotation Xrotation Yrotation
            JOINT lHand
            {
              OFFSET 22.5879 0.773209 7.07136
              CHANNELS 3 Zrotation Xrotation Yrotation
              JOINT lThumb1
              {
                OFFSET 1.2192 -0.487915 3.41376
                CHANNELS 3 Zrotation Xrotation Yrotation
                JOINT lThumb2
                {
                  OFFSET 3.37035 -0.52449 3.41376
                  CHANNELS 3 Zrotation Xrotation Yrotation
                  End Site
                  {
                    OFFSET 1.78271 -1.18214 1.43049
                  }
                }
              }
              JOINT lIndex1
              {
                OFFSET 7.75947 0.938293 5.60832
                CHANNELS 3 Zrotation Xrotation Yrotation
                JOINT lIndex2
                {
                  OFFSET 2.54057 -0.884171 1.56538
                  CHANNELS 3 Zrotation Xrotation Yrotation
                  End Site
                  {
                    OFFSET 1.62519 -0.234802 1.16502
                  }
                }
              }
              JOINT lMid1
              {
                OFFSET 8.24714 1.18213 3.41376
                CHANNELS 3 Zrotation Xrotation Yrotation
                JOINT lMid2
                {
                  OFFSET 3.10165 -0.590103 1.0647
                  CHANNELS 3 Zrotation Xrotation Yrotation
                  End Site
                  {
                    OFFSET 2.48547 -0.328903 0.83742
                  }
                }
              }
              JOINT lRing1
              {
                OFFSET 8.82822 0.546677 1.51678
                CHANNELS 3 Zrotation Xrotation Yrotation
                JOINT lRing2
                {
                  OFFSET 2.60934 -0.819778 -0.0198488
                  CHANNELS 3 Zrotation Xrotation Yrotation
                  End Site
                  {
                    OFFSET 2.33842 -0.294052 0.168128
                  }
                }
              }
              JOINT lPinky1
              {
                OFFSET 8.27202 -0.0477905 -0.4584
                CHANNELS 3 Zrotation Xrotation Yrotation
                JOINT lPinky2
                {
                  OFFSET 1.82734 -0.647385 -0.700984
                  CHANNELS 3 Zrotation Xrotation Yrotation
                  End Site
                  {
                    OFFSET 1.69225 -0.51767 -0.607171
                  }
                }
              }
            }
          }
        }
      }
    }
  }
  JOINT rButtock
  {
    OFFSET -8.77824 4.35084 1.2192
    CHANNELS 3 Zrotation Xrotation Yrotation
    JOINT rThigh
    {
      OFFSET 0 -1.70687 -2.19456
      CHANNELS 3 Zrotation Xrotation Yrotation
      JOINT rShin
      {
        OFFSET 0 -36.8199 0.73152
        CHANNELS 3 Zrotation Xrotation Yrotation
        JOINT rFoot
        {
          OFFSET 0.73152 -45.1104 -5.12064
          CHANNELS 3 Zrotation Xrotation Yrotation
          End Site
          {
            OFFSET -1.1221 -3.69964 12.103
          }
        }
      }
    }
  }
  JOINT lButtock
  {
    OFFSET 8.77824 4.35084 1.2192
    CHANNELS 3 Zrotation Xrotation Yrotation
    JOINT lThigh
    {
      OFFSET 0 -1.70687 -2.19456
      CHANNELS 3 Zrotation Xrotation Yrotation
      JOINT lShin
      {
        OFFSET 0 -36.8199 0.73152
        CHANNELS 3 Zrotation Xrotation Yrotation
        JOINT lFoot
        {
          OFFSET -0.73152 -45.1104 -5.12064
          CHANNELS 3 Zrotation Xrotation Yrotation
          End Site
          {
            OFFSET 1.1221 -3.69964 12.103
          }
        }
      }
    }
  }
}
MOTION
Frames:	7
Frame Time:	0.03333
0.0 0.0 0.0 0.0 0.0 0.0 0.0 0.0 0.0 0.0 0.0 0.0 0.0 0.0 0.0 0.0 0.0 0.0 0.0 0.0 0.0 0.0 0.0 0.0 0.0 0.0 0.0 0.0 0.0 0.0 0.0 0.0 0.0 0.0 0.0 0.0 0.0 0.0 0.0 0.0 0.0 0.0 0.0 0.0 0.0 0.0 0.0 0.0 0.0 0.0 0.0 0.0 0.0 0.0 0.0 0.0 0.0 0.0 0.0 0.0 0.0 0.0 0.0 0.0 0.0 0.0 0.0 0.0 0.0 0.0 0.0 0.0 0.0 0.0 0.0 0.0 0.0 0.0 0.0 0.0 0.0 0.0 0.0 0.0 0.0 0.0 0.0 0.0 0.0 0.0 0.0 0.0 0.0 0.0 0.0 0.0 0.0 0.0 0.0 0.0 0.0 0.0 0.0 0.0 0.0 0.0 0.0 0.0 0.0 0.0 0.0 0.0 0.0 0.0 0.0 0.0 0.0 0.0 0.0 0.0 0.0 0.0 0.0 0.0 0.0 0.0 0.0 0.0 0.0 0.0 0.0 0.0
0.0206 63.4653 -0.2052 -0.21886 50.195122 -1.11859 -3.027439 0.239805 91.811501 -5.390061 -13.145695 146.80904 7.220101 -19.921485 59.146466 35.481726 -23.604359 41.459176 -120.749666 -10.890615 -19.032271 -36.207594 2.840413 -8.673482 76.601422 19.005741 8.769162 10.307953 -44.836015 4.386404 114.228312 72.278912 17.323428 174.541148 -21.409147 28.806069 9.872533 2.812897 43.453627 91.766578 79.627461 126.48153 -72.353097 -27.649744 -33.890511 21.530192 35.448514 -179.93232 -24.385805 -15.523453 -82.314375 -41.227964 -45.969552 -93.208731 -52.824937 -8.533264 -95.299098 -39.138912 57.889985 22.038107 67.331945 -10.972455 -52.690858 -20.960858 63.389606 -4.258394 60.11754 27.953194 -146.1663 156.700867 -6.397175 -171.031651 -53.13799 -83.145959 148.247755 -41.57367 -50.857482 39.640865 -137.21164 -18.107489 -67.81628 -59.173682 -51.774094 176.758383 34.638057 -71.973549 -9.265392 -22.208375 66.645739 -68.540418 14.876243 -16.8757 140.996592 145.654979 -36.730333 -138.958313 -88.396379 6.420474 83.401672 -102.566866 -61.934217 -87.392452 -164.998667 26.764101 57.086859 143.112211 -10.761476 129.922968 53.560131 -0.111551 95.985334 9.732688 53.519359 -15.730529 7.105066 -2.434351 86.291066 -36.66229 -52.732525 144.517865 -42.808368 14.191472 -97.591488 6.386654 41.41335 167.569265 7.259818 -0.453585 98.98897 -76.451931 31.105862 82.705733
0.30920000000000003 58.2587 -1.6475 -6.813904 -27.079407 6.651663 2.081243 5.447063 -18.362752 -0.25613 -0.210197 30.552898 19.764393 14.824803 82.171697 -43.390488 12.103934 -79.393775 9.985613 0.836875 9.557329 101.565418 14.683324 -17.943462 -138.235286 34.131702 149.455997 -3.606433 -31.562143 42.206565 -77.131005 -72.546049 -32.407555 2.623359 -8.709313 -1.449997 -129.731055 32.951851 84.476306 -149.214651 -56.269697 122.340372 -108.388525 41.647148 97.8125 -15.445565 32.572863 -2.949697 -5.886534 -18.101147 -15.615924 -5.841475 -9.475458 16.645738 -62.225239 57.875537 62.530653 18.752314 -0.474206 -14.770338 -0.200009 79.206334 3.480879 -9.300972 -75.292628 -12.763403 155.156896 -33.010337 -169.057158 49.432864 -30.675473 28.711711 7.981876 -3.891567 60.715462 -161.790607 -32.031673 -141.129777 174.96189 -6.953518 -96.380903 113.500639 12.320649 -65.231095 -50.58182 -76.276027 -35.419281 40.358581 54.010116 -50.129052 4.737177 21.658478 5.814406 67.742264 52.312178 -27.374384 74.645587 50.83419 -72.885395 -23.151743 54.873587 -21.839564 142.205333 20.426704 162.139624 155.041165 36.847104 141.677199 51.553247 78.54231 105.064781 -103.074386 75.295652 -116.736577 -35.666453 33.788747 -92.148378 117.916953 -31.924084 -147.669192 -43.79739 -21.010026 -45.161307 68.87034 9.349512 -164.459325 10.988151 -53.15318 -87.684864 -10.696439 34.061702 -64.606886
1.1976 65.4793 -2.8288 -11.122254 -31.668929 10.320831 -0.62873 1.957986 88.282585 5.006492 -4.896651 -77.128901 -1.294703 4.399135 -29.655056 17.461354 -19.067072 36.651046 -24.236917 2.742715 -12.723439 31.213207 12.474182 42.736639 -0.525098 13.75815 7.073287 71.922825 -58.227901 11.793529 1.651473 71.801087 54.114643 2.831929 28.985295 -7.10499 27.416072 -42.708238 1.376226 -109.049986 17.999354 76.651346 -7.221562 -57.453097 -27.588092 52.083404 -14.331751 -13.620622 -178.400872 -6.818331 158.125283 -31.335314 -60.264993 -60.128647 125.354879 -86.379298 135.246576 -80.172521 -63.643322 -85.277299 -141.854845 -26.46502 -105.50855 17.576994 6.864955 -23.959777 148.846022 -21.315382 178.13573 38.578271 3.245756 19.50242 -7.213302 -20.858089 60.430272 -166.370774 -15.89676 -144.762515 -8.847967 -2.608522 7.424929 126.637264 -25.240273 -111.499946 -3.043218 0.613363 10.177153 -165.091209 22.432933 -97.207841 155.599206 -43.637518 -177.058354 130.741013 40.972302 -140.932061 81.559724 62.961143 -82.905348 -46.376313 26.865307 13.41939 127.05286 50.893989 -164.815484 67.734411 57.277875 -120.265718 5.373171 85.680472 167.25598 31.908913 84.180203 -39.964445 5.776688 -37.68391 161.062876 -156.356546 -17.630222 7.059514 76.341933 4.204251 62.557176 -56.074354 -5.695156 84.137992 52.806519 -1.183788 -95.937323 -1.456282 10.639089 -3.529298
2.3383000000000003 64.7991 -3.3543000000000003 -13.835393 -31.329585 10.528876 -0.120205 5.61562 80.991754 2.945233 -6.727863 -64.315606 -12.299862 11.258387 -63.516692 34.124825 7.110248 62.761028 -138.850382 -27.374384 -65.949837 13.546242 6.825952 53.326547 -153.162917 13.548553 160.195022 -69.048475 34.421183 34.966133 1.988439 -36.841648 -86.369303 148.586991 -28.284134 133.02118 -19.410642 10.326099 -3.141896 2.265506 -12.492088 7.175297 -9.549734 -75.980942 -45.563242 -147.705129 -53.115934 99.950754 -22.444808 34.701111 -3.000203 3.131449 -6.98225 27.353066 -135.097413 40.694754 150.247195 -150.582477 -52.03537 -178.0674 12.192596 39.793077 -13.226559 -56.254571 -57.6367 -20.89727 154.179251 -35.240272 -176.751505 49.44702 -17.487998 25.821512 168.848978 -6.837777 146.936684 2.32889 6.809355 -3.316683 -1.180196 13.153658 11.747658 126.110776 -64.041751 -128.353974 9.852797 37.261929 -5.324985 97.015413 62.092465 -28.06416 152.736517 11.098162 -163.515117 44.231178 73.915879 -44.221839 3.667308 -16.638123 2.253261 24.210392 -17.221622 16.007584 149.078027 9.912426 -177.870987 138.440839 15.129936 -145.413181 42.036307 1.316159 79.019208 -3.656303 46.538728 -170.936939 -51.776652 -0.675707 -83.042931 122.961706 -26.737888 -164.233319 84.344177 45.528183 75.727768 -99.954571 0.680347 85.209868 71.779702 -13.172606 83.931456 75.267916 11.133522 -168.772482
3.4382 62.158500000000004 -3.0934 -14.113799 -28.01619 9.16223 2.055961 10.6038 12.475351 5.345412 -5.500817 3.057555 7.996687 17.654997 94.084867 -27.762426 0.484501 -95.630341 -32.987573 23.846 -70.987032 9.122236 4.306834 50.473599 -2.234471 -0.946984 -3.168688 -102.84545 -14.936518 -176.119057 -169.322135 -0.446633 -135.13237 1.581335 25.111402 -2.994822 -10.857958 12.087501 1.342643 -4.283227 -0.53122 10.480784 -137.756238 -29.977623 148.293949 3.228472 -52.846406 -79.08098 1.172092 -44.978223 -11.092778 41.948056 -80.534978 1.391778 4.440716 5.046128 0.763917 -98.777718 65.471383 109.549503 8.217455 23.200538 -20.255656 -178.528761 11.637376 -175.334997 160.407518 -58.001619 -175.326234 57.718403 -26.688634 44.291795 -0.004976 -1.752571 69.563179 -170.148257 -21.414208 -148.798753 151.156555 22.042717 -104.51084 -20.880111 -55.008365 -43.533898 149.072605 -62.461934 -148.35138 68.351377 52.318896 -95.163145 49.455331 78.228749 -51.733703 4.516229 4.626324 8.171195 148.613101 8.437827 -174.368867 -18.671507 34.247194 -11.638661 171.610865 -27.239625 174.692152 75.740661 32.19029 -57.197714 -39.916367 57.207225 -146.459595 -20.300118 56.28052 138.570415 -41.798496 39.201559 -141.908732 -129.357589 25.533679 -149.81379 15.046101 83.449858 167.641991 -146.81148 24.472973 6.418785 45.371059 68.048726 158.499875 102.946252 -5.486234 -164.993204
4.437 61.1038 -2.3798 -14.19649 -25.339169 9.02279 2.626737 7.90007 149.185694 -7.732049 0.019653 -136.576309 10.823588 21.41131 85.802121 -27.623055 0.759053 -88.981781 -14.405531 5.23406 -39.767316 17.198479 6.71915 42.431422 -0.261326 -13.311196 -4.063711 -92.063431 -35.921083 -158.162151 9.432441 -23.848984 -74.473684 164.00533 -23.979768 139.164876 -5.994125 15.972698 4.912188 -155.681468 -49.163928 101.502247 -85.019653 60.016232 91.240948 -159.411008 61.670691 89.937161 1.764892 -8.037897 -1.793256 10.340358 28.231363 -6.765208 1.601186 -1.307258 1.742877 33.670136 -12.339942 15.163442 -156.510237 27.07478 -116.746265 53.788395 16.912277 -32.36413 0.23552 -36.045085 6.109144 -91.247765 43.28714 43.205322 -47.455311 -33.946777 -54.736455 30.936608 60.730377 -23.297911 2.711891 -1.640589 23.012376 -37.568714 -21.450262 12.071642 149.856088 -66.192902 -151.529884 -1.186903 48.887786 -17.200487 151.328435 -66.666561 -166.436297 173.451539 -41.97311 -139.463489 152.031939 20.517521 -171.276616 -76.901334 -86.125979 -61.979299 45.093387 -59.604072 9.527928 141.339884 -5.076448 81.784521 53.546388 31.499101 71.955927 -43.143499 41.739891 176.719841 -57.822972 -14.957598 -89.296926 138.987971 -13.518091 -160.963417 42.064974 73.36659 126.463118 -133.043639 19.369491 -53.40062 -57.606549 53.798346 -30.734138 148.667909 10.361108 -96.953542
